<svg id="visual" viewBox="0 0 1920 864" width="1920" height="864" xmlns="http://www.w3.org/2000/svg" xmlns:xlink="http://www.w3.org/1999/xlink" version="1.1"><rect x="0" y="0" width="1920" height="864" fill="#FFFFFF"></rect><defs><linearGradient id="grad1_0" x1="55%" y1="100%" x2="100%" y2="0%"><stop offset="5.555555555555554%" stop-color="#c084fc" stop-opacity="1"></stop><stop offset="94.44444444444446%" stop-color="#c084fc" stop-opacity="1"></stop></linearGradient></defs><defs><linearGradient id="grad1_1" x1="55%" y1="100%" x2="100%" y2="0%"><stop offset="5.555555555555554%" stop-color="#c084fc" stop-opacity="1"></stop><stop offset="94.44444444444446%" stop-color="#d8adfe" stop-opacity="1"></stop></linearGradient></defs><defs><linearGradient id="grad1_2" x1="55%" y1="100%" x2="100%" y2="0%"><stop offset="5.555555555555554%" stop-color="#ecd6ff" stop-opacity="1"></stop><stop offset="94.44444444444446%" stop-color="#d8adfe" stop-opacity="1"></stop></linearGradient></defs><defs><linearGradient id="grad1_3" x1="55%" y1="100%" x2="100%" y2="0%"><stop offset="5.555555555555554%" stop-color="#ecd6ff" stop-opacity="1"></stop><stop offset="94.44444444444446%" stop-color="#ffffff" stop-opacity="1"></stop></linearGradient></defs><defs><linearGradient id="grad2_0" x1="0%" y1="100%" x2="45%" y2="0%"><stop offset="5.555555555555554%" stop-color="#c084fc" stop-opacity="1"></stop><stop offset="94.44444444444446%" stop-color="#c084fc" stop-opacity="1"></stop></linearGradient></defs><defs><linearGradient id="grad2_1" x1="0%" y1="100%" x2="45%" y2="0%"><stop offset="5.555555555555554%" stop-color="#d8adfe" stop-opacity="1"></stop><stop offset="94.44444444444446%" stop-color="#c084fc" stop-opacity="1"></stop></linearGradient></defs><defs><linearGradient id="grad2_2" x1="0%" y1="100%" x2="45%" y2="0%"><stop offset="5.555555555555554%" stop-color="#d8adfe" stop-opacity="1"></stop><stop offset="94.44444444444446%" stop-color="#ecd6ff" stop-opacity="1"></stop></linearGradient></defs><defs><linearGradient id="grad2_3" x1="0%" y1="100%" x2="45%" y2="0%"><stop offset="5.555555555555554%" stop-color="#ffffff" stop-opacity="1"></stop><stop offset="94.44444444444446%" stop-color="#ecd6ff" stop-opacity="1"></stop></linearGradient></defs><g transform="translate(1920, 864)"><path d="M-340 0C-339.1 -46.6 -338.2 -93.3 -319.3 -132.3C-300.4 -171.2 -263.6 -202.5 -227.7 -227.7C-191.8 -252.9 -156.8 -272 -119 -287.3C-81.2 -302.7 -40.6 -314.3 0 -326L0 0Z" fill="#f6eaff"></path><path d="M-255 0C-254.3 -35 -253.6 -70 -239.5 -99.2C-225.3 -128.4 -197.7 -151.9 -170.8 -170.8C-143.8 -189.7 -117.6 -204 -89.3 -215.5C-60.9 -227 -30.5 -235.8 0 -244.5L0 0Z" fill="#e2c1fe"></path><path d="M-170 0C-169.5 -23.3 -169.1 -46.6 -159.6 -66.1C-150.2 -85.6 -131.8 -101.3 -113.8 -113.8C-95.9 -126.4 -78.4 -136 -59.5 -143.7C-40.6 -151.3 -20.3 -157.2 0 -163L0 0Z" fill="#cc99fd"></path><path d="M-85 0C-84.8 -11.7 -84.5 -23.3 -79.8 -33.1C-75.1 -42.8 -65.9 -50.6 -56.9 -56.9C-47.9 -63.2 -39.2 -68 -29.8 -71.8C-20.3 -75.7 -10.2 -78.6 0 -81.5L0 0Z" fill="#c084fc"></path></g><g transform="translate(0, 0)"><path d="M345.6 0C335.5 43.4 325.4 86.8 308.6 127.8C291.7 168.8 268.2 207.5 235.5 235.5C202.8 263.4 160.9 280.6 120.2 290.1C79.4 299.6 39.7 301.3 0 303L0 0Z" fill="#f6eaff"></path><path d="M259.2 0C251.6 32.5 244.1 65.1 231.4 95.9C218.8 126.6 201.1 155.6 176.6 176.6C152.1 197.6 120.7 210.5 90.1 217.6C59.5 224.7 29.8 226 0 227.3L0 0Z" fill="#e2c1fe"></path><path d="M172.8 0C167.8 21.7 162.7 43.4 154.3 63.9C145.9 84.4 134.1 103.8 117.7 117.7C101.4 131.7 80.5 140.3 60.1 145C39.7 149.8 19.8 150.6 0 151.5L0 0Z" fill="#cc99fd"></path><path d="M86.4 0C83.9 10.8 81.4 21.7 77.1 32C72.9 42.2 67 51.9 58.9 58.9C50.7 65.9 40.2 70.2 30 72.5C19.8 74.9 9.9 75.3 0 75.8L0 0Z" fill="#c084fc"></path></g></svg>